<svg version="1.2" xmlns="http://www.w3.org/2000/svg" viewBox="0 0 200 200" width="48" height="48">
	<title>Innova_logo_pantone_ikon - Copy-ai</title>
	<style>
		.s0 { fill: #0071ce;stroke: #f18a20;stroke-miterlimit:10;stroke-width: .4 } 
		.s1 { fill: #7fabd0;stroke: #fdcb8a;stroke-miterlimit:10;stroke-width: .4 } 
		.s2 { fill: #5498d0 } 
	</style>
	<g id="Layer 1">
		<path id="&lt;Path&gt;" class="s0" d="m60 152.6c28.4 33.7 89.7 43.9 113.6-15-7.5 6.5-16.9 13-28.3 19.3-38.2 21.1-67.4 14.1-85.3-4.3z"/>
		<path id="&lt;Path&gt;" class="s0" d="m180.9 60.2c-10.3-36.6-46.1-40.7-80.1-21.5 32.6-2.5 62.2 6.4 80.1 21.5z"/>
		<path id="&lt;Path&gt;" class="s1" d="m180.9 60.2c4 14.3 4 33.6-1.5 58.5-1.5 7-3.5 13.3-5.8 18.9 33.6-28.9 29.9-58.2 7.3-77.4z"/>
		<path id="&lt;Path&gt;" class="s1" d="m55 83.1c12.6-19.8 29-34.9 45.8-44.4q-5.5 0.4-11.1 1.3c-57 8.8-62 79.3-29.7 112.6-15.6-18.6-21.2-44.3-5-69.5z"/>
		<path id="&lt;Compound Path&gt;" fill-rule="evenodd" class="s2" d="m179.4 118.7c-1.5 7-3.5 13.3-5.8 18.9-7.5 6.5-16.9 13-28.3 19.3-38.2 21.1-67.4 14.1-85.3-4.3-15.6-18.6-21.2-44.3-5-69.5 12.6-19.8 29-34.9 45.8-44.4 32.6-2.5 62.2 6.4 80.1 21.5 4 14.3 4 33.6-1.5 58.5zm-25.9-38.3q0 0 0 0 0-0.1 0-0.1-0.2-0.7-0.4-1.4 0 0-0.1 0c-6.5-21-26.7-23.5-46.2-12.4q0 0 0 0-0.4 0.2-0.8 0.5 0 0-0.1 0 0 0 0 0c-9.4 5.5-18.5 14.1-25.6 25.2-9.3 14.5-5.5 28.9 3 40.1q0.9 1.2 2 2.3c17.2 17.6 50.3 21.8 63.6-10.9q2-4.9 3.4-11c3-13.5 3.1-24.2 1.2-32.3z"/>
	</g>
</svg>